<?xml version="1.0" encoding="UTF-8"?>
<svg version="1.1" xmlns="http://www.w3.org/2000/svg" width="500" height="500">
<path d="M0 0 C165 0 330 0 500 0 C500 165 500 330 500 500 C335 500 170 500 0 500 C0 335 0 170 0 0 Z " fill="#000000" transform="translate(0,0)"/>
<path d="M0 0 C1.93212312 0.9534215 3.71080363 2.00141939 5.52734375 3.15625 C6.85453564 3.83506066 8.1864691 4.5048842 9.52734375 5.15625 C10.91953125 3.9496875 10.91953125 3.9496875 12.33984375 2.71875 C16.9164356 -1.2476296 21.50276129 -1.30370409 27.37890625 -1.25390625 C33.09229585 -0.50960612 37.2145826 2.47730167 40.93359375 6.78515625 C44.759734 12.23740611 45.45660359 17.68823347 44.52734375 24.15625 C40.42412828 34.64945319 31.03370454 42.08934324 22.6875 49.21875 C18.10761299 53.32656909 13.84041331 57.77182451 9.52734375 62.15625 C6.52052575 60.81625502 4.52971766 59.35779709 2.27734375 56.96875 C-0.09385343 54.46255892 -2.57995123 52.17257529 -5.1875 49.91796875 C-9.5335308 46.14066663 -13.68526489 42.19806924 -17.78515625 38.15625 C-18.83799805 37.14691406 -18.83799805 37.14691406 -19.91210938 36.1171875 C-25.23185712 30.86336609 -28.86876466 26.02360558 -28.97265625 18.21875 C-28.73695134 11.74668604 -26.04819291 7.99905934 -21.81640625 3.328125 C-15.69540279 -2.22227644 -7.68756967 -2.62324652 0 0 Z " fill="#FD5656" transform="translate(242.47265625,165.84375)"/>
<path d="M0 0 C3.46991083 2.5647167 4.78073813 4.10608622 5.8125 8.3125 C5.874375 9.199375 5.93625 10.08625 6 11 C7.3303125 11.0928125 7.3303125 11.0928125 8.6875 11.1875 C12.89285611 12.21900244 14.39011484 13.56986521 17 17 C17.8125 20.8125 17.8125 20.8125 18 24 C18.721875 24.061875 19.44375 24.12375 20.1875 24.1875 C24.26343161 25.36499135 25.60411861 26.44040479 28 30 C29.25561768 38.9558853 27.48354479 48.16496097 26 57 C24.34385343 57.38218767 22.67542976 57.71395102 21 58 C20.67 57.67 20.34 57.34 20 57 C20.06612048 54.89316103 20.20508173 52.78851645 20.375 50.6875 C20.47425781 49.43066406 20.57351562 48.17382812 20.67578125 46.87890625 C20.78277344 45.59886719 20.88976562 44.31882813 21 43 C21.09667969 41.81277344 21.19335938 40.62554687 21.29296875 39.40234375 C21.52334704 36.60107734 21.75894298 33.80036459 22 31 C20.35 30.67 18.7 30.34 17 30 C16.95101562 31.24136719 16.90203125 32.48273438 16.8515625 33.76171875 C16.77650201 35.40366694 16.70095561 37.04559297 16.625 38.6875 C16.57859375 39.91243164 16.57859375 39.91243164 16.53125 41.16210938 C16.32044076 45.50126633 15.98261241 49.04283457 14 53 C12.68 53 11.36 53 10 53 C9.84043625 41.29865851 10.33591591 29.68076488 11 18 C9.35 17.67 7.7 17.34 6 17 C6 28.88 6 40.76 6 53 C4.68 53.66 3.36 54.32 2 55 C-0.42005138 52.57994862 -0.26329238 51.95688779 -0.31884766 48.64208984 C-0.33871735 47.74130707 -0.35858704 46.84052429 -0.37905884 45.91244507 C-0.39061005 44.93844757 -0.40216125 43.96445007 -0.4140625 42.9609375 C-0.43342865 41.96494537 -0.4527948 40.96895325 -0.4727478 39.94277954 C-0.53264965 36.7536075 -0.57897138 33.56439957 -0.625 30.375 C-0.66317001 28.21612987 -0.70222116 26.05727512 -0.7421875 23.8984375 C-0.8383597 18.59909466 -0.92337589 13.29965957 -1 8 C-2.65614657 7.61781233 -4.32457024 7.28604898 -6 7 C-7.57644501 8.57644501 -7.30141672 10.27545573 -7.48071289 12.46533203 C-7.56072037 13.41787872 -7.64072784 14.37042542 -7.72315979 15.35183716 C-7.80549362 16.39330902 -7.88782745 17.43478088 -7.97265625 18.5078125 C-8.06002548 19.58062469 -8.14739471 20.65343689 -8.2374115 21.75875854 C-8.42205614 24.04357693 -8.60431816 26.32858888 -8.78442383 28.61376953 C-9.05752645 32.06219971 -9.34169025 35.50958852 -9.62695312 38.95703125 C-12.88875077 73.72427161 -12.88875077 73.72427161 1.30444336 104.55981445 C5.12062536 108.97040254 9.09853069 113.15424672 13.3125 117.1875 C19.71483192 123.41643543 24.62270145 131.38229275 27 140 C26.6875 143 26.6875 143 26 145 C24.125 144.72265625 24.125 144.72265625 22 144 C20.875 142.43359375 20.875 142.43359375 20 140.4375 C19.71125 139.79683594 19.4225 139.15617188 19.125 138.49609375 C18.48492329 137.07592355 17.85192705 135.65238362 17.24145508 134.21923828 C14.63993381 128.5077642 11.06662309 124.44422403 6.6875 120 C-9.16994498 103.6145069 -18.21117273 88.39243865 -18.1875 64.9375 C-18.18669434 64.07608398 -18.18588867 63.21466797 -18.18505859 62.32714844 C-18.10735589 53.83469979 -17.39474194 45.43508444 -16.55859375 36.98828125 C-16.14653899 32.80033174 -15.84035017 28.61910543 -15.59765625 24.41796875 C-15.52853027 23.33483398 -15.4594043 22.25169922 -15.38818359 21.13574219 C-15.25764551 19.05539068 -15.14378438 16.97390278 -15.04931641 14.89160156 C-14.62206056 8.57854664 -13.67607318 5.36099321 -9 1 C-5.86128812 -0.56935594 -3.46144178 -0.35201103 0 0 Z " fill="#F4F4F4" transform="translate(178,130)"/>
<path d="M0 0 C3.5386994 1.65139305 4.81070153 2.71605229 7 6 C7.3923645 8.17579651 7.3923645 8.17579651 7.59423828 10.73657227 C7.7141362 12.18067223 7.7141362 12.18067223 7.8364563 13.65394592 C7.91362885 14.69755783 7.99080139 15.74116974 8.0703125 16.81640625 C8.15626678 17.90146957 8.24222107 18.9865329 8.33078003 20.10447693 C8.5113916 22.41168903 8.6876283 24.71924708 8.85986328 27.02709961 C9.12013326 30.49760567 9.39679083 33.9665017 9.67578125 37.43554688 C10.44957885 47.31827496 11.165546 57.18875792 11.21484375 67.10546875 C11.22085602 67.78895889 11.22686829 68.47244904 11.23306274 69.176651 C11.08130562 89.61820801 1.84619682 104.98204438 -12.16015625 119.08984375 C-17.99471926 124.991562 -22.56506773 130.27199777 -25.875 137.9375 C-26.18179687 138.62134766 -26.48859375 139.30519531 -26.8046875 140.00976562 C-27.54704828 141.66847799 -28.27509815 143.33358362 -29 145 C-30.32 145 -31.64 145 -33 145 C-34.81644076 139.55067772 -32.16489261 134.42931718 -29.765625 129.42578125 C-26.1633312 123.21460973 -21.59845807 118.41287898 -16.5 113.4375 C-3.74470447 100.96468972 3.93382588 87.34320837 4.24047852 69.0222168 C4.28562811 57.3585721 3.49741534 45.80615621 2.5625 34.1875 C2.4951062 33.34953888 2.4277124 32.51157776 2.35827637 31.64822388 C2.16051137 29.21698098 1.95856205 26.78614074 1.75390625 24.35546875 C1.66318596 23.27043564 1.66318596 23.27043564 1.57063293 22.16348267 C1.39275646 20.10761956 1.19911985 18.05390546 1 16 C0.93497284 15.25916168 0.86994568 14.51832336 0.802948 13.7550354 C0.60776075 11.82796868 0.31141223 9.9117287 0 8 C-1.92064793 6.4100567 -1.92064793 6.4100567 -4 6 C-6.08382862 9.12574293 -6.25889959 9.90452555 -6.31884766 13.47143555 C-6.33871735 14.37214279 -6.35858704 15.27285004 -6.37905884 16.20085144 C-6.39638565 17.65410576 -6.39638565 17.65410576 -6.4140625 19.13671875 C-6.43342865 20.13129593 -6.4527948 21.12587311 -6.4727478 22.15058899 C-6.53256159 25.3294719 -6.57893639 28.50839098 -6.625 31.6875 C-6.6631781 33.84181273 -6.70222973 35.99611017 -6.7421875 38.15039062 C-6.83826451 43.43345809 -6.92330674 48.71661753 -7 54 C-8.875 54.625 -8.875 54.625 -11 55 C-13.90497155 52.09502845 -13.3544517 49.04600694 -13.4140625 45.1484375 C-13.43342865 44.37440582 -13.4527948 43.60037415 -13.4727478 42.80288696 C-13.5325983 40.32703725 -13.57895011 37.85114117 -13.625 35.375 C-13.66317482 33.69789623 -13.70222625 32.02081216 -13.7421875 30.34375 C-13.83830409 26.22932647 -13.92231439 22.11481114 -14 18 C-14.99 18.33 -15.98 18.66 -17 19 C-17 30.22 -17 41.44 -17 53 C-18.65 52.67 -20.3 52.34 -22 52 C-22.90833969 49.27498092 -23.18359985 47.37766029 -23.31640625 44.55078125 C-23.37924805 43.27944336 -23.37924805 43.27944336 -23.44335938 41.98242188 C-23.48267578 41.10134766 -23.52199219 40.22027344 -23.5625 39.3125 C-23.60568359 38.41982422 -23.64886719 37.52714844 -23.69335938 36.60742188 C-23.79935353 34.40509892 -23.90142051 32.20266527 -24 30 C-25.98 30.99 -25.98 30.99 -28 32 C-28.14940451 40.36665249 -27.57317099 48.65831506 -27 57 C-29.475 57.495 -29.475 57.495 -32 58 C-34.15782044 51.21827861 -35.3492833 44.65929061 -35.5 37.5625 C-35.5309375 36.24378906 -35.561875 34.92507812 -35.59375 33.56640625 C-34.85954817 29.15636497 -33.46920468 27.7261697 -30 25 C-27.1875 24.1875 -27.1875 24.1875 -25 24 C-24.9071875 22.4221875 -24.9071875 22.4221875 -24.8125 20.8125 C-23.84307928 16.2636797 -22.68004161 14.78047588 -19 12 C-15.6875 11.1875 -15.6875 11.1875 -13 11 C-12.938125 10.113125 -12.87625 9.22625 -12.8125 8.3125 C-11.08479582 1.26878295 -6.98859692 -0.99837099 0 0 Z " fill="#F4F4F4" transform="translate(328,130)"/>
<path d="M0 0 C3.39309795 1.2772498 5.03869275 2.78196141 7.0546875 5.7734375 C8.00348886 12.50907241 5.33527342 16.78438266 2.0546875 22.3984375 C1.55864014 23.27274414 1.06259277 24.14705078 0.55151367 25.04785156 C-3.45056788 32.05584366 -7.61022387 38.96647884 -11.9453125 45.7734375 C-13.5953125 45.4434375 -15.2453125 45.1134375 -16.9453125 44.7734375 C-16.37671299 40.00453839 -14.20720551 36.34128243 -11.8203125 32.2734375 C-11.00570447 30.85332659 -10.19191426 29.43274627 -9.37890625 28.01171875 C-8.97140137 27.30354004 -8.56389648 26.59536133 -8.14404297 25.86572266 C-6.35772645 22.74785452 -4.61170246 19.61112351 -2.8828125 16.4609375 C-2.31433594 15.43355469 -1.74585938 14.40617188 -1.16015625 13.34765625 C0.26808155 10.79567498 0.26808155 10.79567498 0.0546875 7.7734375 C-2.69812197 6.83296544 -2.69812197 6.83296544 -5.9453125 6.7734375 C-8.61946832 8.77895202 -8.61946832 8.77895202 -10.8828125 11.7109375 C-11.31319824 12.21729736 -11.74358398 12.72365723 -12.18701172 13.24536133 C-13.45566697 14.74139027 -14.70093119 16.25715788 -15.9453125 17.7734375 C-17.14780562 19.17430525 -18.35537491 20.57084873 -19.5703125 21.9609375 C-20.12074219 22.59257812 -20.67117188 23.22421875 -21.23828125 23.875 C-26.18428653 29.37559169 -31.51050987 34.39181745 -37.18359375 39.1328125 C-40.77166897 42.47425728 -42.32124656 45.28031855 -43.2265625 50.10546875 C-43.42725342 51.14485596 -43.62794434 52.18424316 -43.8347168 53.25512695 C-44.13696167 54.90387817 -44.13696167 54.90387817 -44.4453125 56.5859375 C-44.66034424 57.70637451 -44.87537598 58.82681152 -45.09692383 59.98120117 C-45.72239797 63.24359338 -46.33539099 66.50810706 -46.9453125 69.7734375 C-47.38075363 72.08061906 -47.81867766 74.38715964 -48.265625 76.69213867 C-48.60715232 78.45359308 -48.93874751 80.21696524 -49.26953125 81.98046875 C-49.8843911 84.52165252 -50.65806798 86.51117373 -51.9453125 88.7734375 C-53.2653125 88.4434375 -54.5853125 88.1134375 -55.9453125 87.7734375 C-55.75435195 78.38165062 -54.32660725 69.25657833 -52.6953125 60.0234375 C-52.50300049 58.87576904 -52.31068848 57.72810059 -52.11254883 56.5456543 C-50.29105356 46.61667713 -47.56210763 38.25297147 -39.6328125 31.5859375 C-38.66730469 30.75320312 -37.70179688 29.92046875 -36.70703125 29.0625 C-35.0876716 27.72028677 -33.46622668 26.38056935 -31.83984375 25.046875 C-27.55043752 21.45615556 -24.00073007 17.57082893 -20.4453125 13.2734375 C-7.95349131 -1.6787646 -7.95349131 -1.6787646 0 0 Z " fill="#F3F3F3" transform="translate(314.9453125,186.2265625)"/>
<path d="M0 0 C5.65715388 2.58261373 8.83734032 7.27304662 12.65234375 12.0625 C17.83483885 18.54708621 23.09235301 24.41313209 29.625 29.5625 C40.8555884 38.67262765 43.27407153 46.29178387 45.52636719 60.20507812 C46.01577405 63.09308313 46.5783778 65.95817409 47.1640625 68.828125 C47.35589111 69.77655273 47.54771973 70.72498047 47.74536133 71.70214844 C48.1167344 73.53423426 48.4914454 75.36564739 48.86987305 77.19628906 C49.11411011 78.44490723 49.11411011 78.44490723 49.36328125 79.71875 C49.58431519 80.81606445 49.58431519 80.81606445 49.80981445 81.93554688 C50.01817118 84.19724711 49.67181323 85.84387757 49 88 C47.02 88.495 47.02 88.495 45 89 C42.51482524 85.27223787 42.10317446 81.71872492 41.4140625 77.38671875 C41.12019012 75.64641704 40.82590628 73.90618478 40.53125 72.16601562 C40.07607762 69.42835978 39.62542405 66.69012362 39.18261719 63.95043945 C38.75158953 61.30191308 38.30267934 58.65688677 37.8515625 56.01171875 C37.7253653 55.19902023 37.59916809 54.38632172 37.46914673 53.54899597 C36.3217142 46.91948689 33.59673461 42.27983151 28.75 37.5625 C28.1415625 36.96953125 27.533125 36.3765625 26.90625 35.765625 C25.06254517 34.05793119 23.16999453 32.43347899 21.25 30.8125 C17.7339685 27.78120294 14.56458602 24.48692249 11.4375 21.0625 C10.96578369 20.54768066 10.49406738 20.03286133 10.00805664 19.50244141 C7.9127834 17.1932155 5.88860423 14.85926718 3.953125 12.4140625 C1.66732535 9.51973994 1.66732535 9.51973994 -1 7 C-4.36223534 6.79172045 -4.36223534 6.79172045 -7 8 C-6.4490329 13.20819844 -3.86270039 17.23008069 -1.3125 21.6875 C-0.63900513 22.88862427 -0.63900513 22.88862427 0.0480957 24.11401367 C2.90305049 29.17882561 5.87993296 34.13769055 9.13671875 38.95703125 C10.26812487 41.63452176 9.78964806 43.25776766 9 46 C7.68 46 6.36 46 5 46 C3.6472168 44.44628906 3.6472168 44.44628906 2.44921875 42.265625 C2.00102783 41.46954834 1.55283691 40.67347168 1.09106445 39.85327148 C0.62788818 38.99419189 0.16471191 38.1351123 -0.3125 37.25 C-1.28299783 35.49561976 -2.25435158 33.74171274 -3.2265625 31.98828125 C-3.69739258 31.13057129 -4.16822266 30.27286133 -4.65332031 29.38916016 C-5.80237645 27.35060626 -6.99833888 25.37890716 -8.2734375 23.41796875 C-11.73095436 18.03412106 -14.14373855 13.67648274 -13.6171875 7.13671875 C-12.92906548 4.75442291 -12.21498663 3.5900344 -10.4375 1.875 C-6.4382113 -0.3064302 -4.48492177 -0.720791 0 0 Z " fill="#F3F3F3" transform="translate(191,186)"/>
<path d="M0 0 C3.84230057 3.11693168 6.92279041 6.57126231 10 10.4375 C7.85334468 11.74082645 6.53119474 12.47780466 3.9921875 12.28515625 C1.48442227 11.21812673 0.05761785 9.79633798 -1.875 7.875 C-18.8793888 -7.62900155 -39.90664539 -11.46518969 -62.24658203 -10.73291016 C-76.37796799 -9.85831294 -91.54810492 -2.17112977 -102.203125 6.9921875 C-104 8.4375 -104 8.4375 -106.171875 9.4453125 C-108.35359354 10.360026 -108.35359354 10.360026 -109 13.4375 C-110.98 12.7775 -112.96 12.1175 -115 11.4375 C-109.31971528 -0.91443989 -93.21541439 -9.00475965 -81 -13.5625 C-79.98808594 -13.954375 -78.97617188 -14.34625 -77.93359375 -14.75 C-50.75224345 -23.65583491 -22.40230875 -16.56953516 0 0 Z " fill="#F4F4F4" transform="translate(303,125.5625)"/>
<path d="M0 0 C3.93895373 3.05966994 7.57645326 6.19320371 10.875 9.9375 C10.875 10.5975 10.875 11.2575 10.875 11.9375 C8.895 12.5975 6.915 13.2575 4.875 13.9375 C4.318125 13.41800781 3.76125 12.89851563 3.1875 12.36328125 C-12.59989577 -2.0640517 -29.44263656 -6.17905946 -50.51464844 -5.28466797 C-63.14061609 -4.21006728 -74.4486696 2.36733081 -83.4375 11 C-85.33203125 12.7578125 -85.33203125 12.7578125 -87.125 13.9375 C-90.625 13.375 -90.625 13.375 -93.125 11.9375 C-88.6561553 1.43926167 -76.15438977 -4.78862661 -66.125 -9.0625 C-43.8290045 -17.42055534 -19.31400509 -13.69060769 0 0 Z " fill="#F3F3F3" transform="translate(291.125,137.0625)"/>
<path d="M0 0 C4.28583805 2.03013381 7.35353262 4.03029894 10 8 C10.59022577 12.52250916 10.52729459 16.69563971 8.8125 20.9375 C5.93954395 24.20672585 3.85984655 25.76716425 -0.55859375 26.3203125 C-5.24274755 26.51098362 -8.30466921 26.341566 -12.5625 24.25 C-15.5034843 21.53524526 -16.77974035 19.57511264 -17.3359375 15.59765625 C-17.39974425 11.45659826 -17.41121401 8.7433484 -15.375 5.0625 C-10.55334657 0.87527465 -6.41484934 -0.88480681 0 0 Z " fill="#F0F0F0" transform="translate(187,305)"/>
<path d="M0 0 C2.536875 -0.061875 5.07375 -0.12375 7.6875 -0.1875 C8.47729248 -0.21481201 9.26708496 -0.24212402 10.08081055 -0.27026367 C14.60318145 -0.32344113 17.43303549 0.18325747 21 3 C22.59745879 6.19491759 22.50816842 9.53209389 22 13 C19.79259319 15.96858157 18.51402627 16.82865791 15 18 C13.43881572 18.06740865 11.8749748 18.08514456 10.3125 18.0625 C9.10013672 18.04896484 9.10013672 18.04896484 7.86328125 18.03515625 C7.24839844 18.02355469 6.63351563 18.01195312 6 18 C6 20.31 6 22.62 6 25 C4.02 25 2.04 25 0 25 C0 16.75 0 8.5 0 0 Z " fill="#ECECEC" transform="translate(236,306)"/>
<path d="M0 0 C2.31 0 4.62 0 7 0 C8.67257264 3.78908876 10.33705115 7.58167885 12 11.375 C12.47695313 12.45523437 12.95390625 13.53546875 13.4453125 14.6484375 C13.89648438 15.6796875 14.34765625 16.7109375 14.8125 17.7734375 C15.23144531 18.72653809 15.65039062 19.67963867 16.08203125 20.66162109 C17 23 17 23 17 25 C15.02 25 13.04 25 11 25 C10.79632813 24.35546875 10.59265625 23.7109375 10.3828125 23.046875 C9.1332065 20.68846128 9.1332065 20.68846128 6.1796875 20.390625 C5.08914063 20.34421875 3.99859375 20.2978125 2.875 20.25 C1.77929688 20.19328125 0.68359375 20.1365625 -0.4453125 20.078125 C-1.28835938 20.05234375 -2.13140625 20.0265625 -3 20 C-3.99 22.475 -3.99 22.475 -5 25 C-6.98 25 -8.96 25 -11 25 C-9.92055257 22.33170298 -8.83656061 19.6653997 -7.75 17 C-7.44964844 16.25621094 -7.14929688 15.51242187 -6.83984375 14.74609375 C-4.77854603 9.70249294 -2.48957189 4.84695413 0 0 Z " fill="#F0F0F0" transform="translate(322,306)"/>
<path d="M0 0 C1.98 0 3.96 0 6 0 C6 3.3 6 6.6 6 10 C9.96 10 13.92 10 18 10 C18 6.7 18 3.4 18 0 C19.65 0 21.3 0 23 0 C23 8.25 23 16.5 23 25 C21.02 25 19.04 25 17 25 C17 21.7 17 18.4 17 15 C13.37 15 9.74 15 6 15 C6 18.3 6 21.6 6 25 C4.02 25 2.04 25 0 25 C0 16.75 0 8.5 0 0 Z " fill="#F5F5F5" transform="translate(136,306)"/>
<path d="M0 0 C-0.33 1.65 -0.66 3.3 -1 5 C-1.99 4.67 -2.98 4.34 -4 4 C-5.39439664 3.93334624 -6.79169875 3.91461801 -8.1875 3.9375 C-9.445625 3.958125 -10.70375 3.97875 -12 4 C-12 4.99 -12 5.98 -12 7 C-10.84371094 7.39832031 -10.84371094 7.39832031 -9.6640625 7.8046875 C-8.66117188 8.15789062 -7.65828125 8.51109375 -6.625 8.875 C-5.12839844 9.39707031 -5.12839844 9.39707031 -3.6015625 9.9296875 C-1 11 -1 11 1 13 C1.56617647 19.22794118 1.56617647 19.22794118 -0.375 21.875 C-3.65589477 24.14638868 -5.96992924 24.16345412 -9.9375 24.1875 C-10.99839844 24.20167969 -12.05929688 24.21585937 -13.15234375 24.23046875 C-16 24 -16 24 -19 22 C-18.67 20.68 -18.34 19.36 -18 18 C-13.71 18.33 -9.42 18.66 -5 19 C-5 17.68 -5 16.36 -5 15 C-5.67546875 14.90203125 -6.3509375 14.8040625 -7.046875 14.703125 C-14.25868726 13.49420849 -14.25868726 13.49420849 -17.625 11.25 C-19.47466684 8.22327244 -19.58128871 6.48773228 -19 3 C-14.06700377 -3.29382278 -6.90210903 -3.3464771 0 0 Z " fill="#EEEEEE" transform="translate(225,307)"/>
<path d="M0 0 C1.98 0 3.96 0 6 0 C6 6.6 6 13.2 6 20 C10.29 20 14.58 20 19 20 C19 21.65 19 23.3 19 25 C12.73 25 6.46 25 0 25 C0 16.75 0 8.5 0 0 Z " fill="#F4F4F4" transform="translate(348,306)"/>
<path d="M0 0 C6.93 0 13.86 0 21 0 C21 1.32 21 2.64 21 4 C18.69 4 16.38 4 14 4 C14 10.93 14 17.86 14 25 C12.02 25 10.04 25 8 25 C8 18.07 8 11.14 8 4 C5.36 4 2.72 4 0 4 C0 2.68 0 1.36 0 0 Z " fill="#F5F5F5" transform="translate(284,306)"/>
<path d="M0 0 C2.09765625 0.34375 2.09765625 0.34375 4.16015625 1.90625 C5.46220473 5.29157605 5.54723535 7.74711722 5.09765625 11.34375 C3.53515625 13.78125 3.53515625 13.78125 1.09765625 15.34375 C-2.80849057 15.90177097 -4.95346046 15.92767818 -8.33984375 13.84375 C-10.68291877 10.09482996 -10.39008179 7.73339238 -9.90234375 3.34375 C-7.17762337 -0.41448501 -4.34576236 -0.16959073 0 0 Z " fill="#060606" transform="translate(185.90234375,310.65625)"/>
<path d="M0 0 C1.98 0 3.96 0 6 0 C6 8.25 6 16.5 6 25 C4.02 25 2.04 25 0 25 C0 16.75 0 8.5 0 0 Z " fill="#EEEEEE" transform="translate(269,306)"/>
<path d="M0 0 C6.15234375 -0.09765625 6.15234375 -0.09765625 8 0 C9 1 9 1 9.0625 4.0625 C9.041875 5.031875 9.02125 6.00125 9 7 C6.04335481 8.4783226 3.25770263 8.06032783 0 8 C0 5.36 0 2.72 0 0 Z " fill="#040404" transform="translate(243,311)"/>
<path d="M0 0 C2.6855594 2.6855594 3.06049974 5.37621328 4 9 C1.69 9 -0.62 9 -3 9 C-2.44271087 5.65626525 -1.64826111 2.96687001 0 0 Z " fill="#171717" transform="translate(325,312)"/>
</svg>
